<svg height="511pt" viewBox="-95 1 511 511.999" width="511pt" xmlns="http://www.w3.org/2000/svg"><path d="m294.902344 196.742188c11.03125-4.675782 18.773437-15.605469 18.773437-28.34375 0-13.601563-8.820312-25.132813-21.050781-29.207032-3.207031-1.066406-5.433594-3.980468-5.429688-7.359375v-.332031c0-9.257812-4.089843-17.558594-10.554687-23.203125-3.328125-2.902344-4.636719-7.46875-3.28125-11.667969.960937-2.976562 1.480469-6.152344 1.480469-9.445312 0-13.78125-9.050782-25.4375-21.53125-29.363282-4.347656-1.367187-7.152344-5.464843-7.171875-10.023437-.007813-1.710937-.15625-3.453125-.460938-5.222656-2.292969-13.273438-13.21875-23.648438-26.597656-25.222657-5.546875-.652343-10.84375.175782-15.546875 2.136719-3.3125 1.378907-7.074219.523438-9.511719-2.109375-5.621093-6.070312-13.660156-9.875-22.589843-9.875-7.65625 0-14.65625 2.796875-20.039063 7.421875-2.96875 2.550781-7.277344 2.761719-10.613281.71875-4.671875-2.859375-10.167969-4.507812-16.046875-4.507812-17.003907 0-30.785157 13.785156-30.785157 30.785156v.074219c.007813 2.066406-1.777343 3.632812-3.835937 3.453125-.871094-.074219-1.753906-.113281-2.644531-.113281-15.28125 0-27.964844 11.132812-30.375 25.734374-.5 3.039063-2.363282 5.703126-5.117188 7.085938-7.246094 3.644531-20.359375 12.460938-20.910156 28.75-.152344 4.457031.882812 8.695312 2.636719 12.523438 1.527343 3.332031 1.046875 7.199218-1.222657 10.078124-4.121093 5.238282-6.582031 11.84375-6.582031 19.023438 0 3.808594.691407 7.449219 1.953125 10.816406 2.253906 5.992188.460938 12.769532-4.660156 16.609375-9.746094 7.308594-15.855469 19.203125-15.125 32.484375 1.027344 18.554688 15.691406 33.820313 34.191406 35.570313.128906.011719.257813.015625.386719.023437-3.933594 6.136719-6.074219 13.527344-5.652344 21.445313.957031 18.09375 15.519531 32.898437 33.601563 34.117187 21.105468 1.425782 38.671875-15.273437 38.671875-36.078125 0-2.738281-.3125-5.398437-.886719-7.960937 3.484375-4.613282 5.703125-10.226563 6.125-16.296875 1.242188-17.992188-12.984375-32.96875-30.710938-32.96875 0-12.054688 147.140626-6.660157 147.140626 8.628906 0 5.121094 1.257812 9.945313 3.46875 14.195313-15.230469 4.9375-26.039063 19.695312-24.929688 36.8125 1.160156 17.894531 15.628906 32.429687 33.515625 33.664062 21.136719 1.460938 38.734375-15.25 38.734375-36.074219 0-5.574219-1.265625-10.851562-3.519531-15.5625-1.414063-2.949219-.683594-6.496093 1.929687-8.464843 7.339844-5.523438 12.195313-14.234376 12.367188-24.019532.0625-3.570312-.484375-7-1.542969-10.203125-1.125-3.410156.644531-7.125 3.949219-8.527343zm0 0" fill="#efefef"/><path d="m292.140625 438.738281v58.207031c0 4.164063-3.382813 7.546876-7.546875 7.546876h-233.074219c-4.171875 0-7.554687-3.382813-7.554687-7.546876v-58.207031c0-29.5 19.378906-55.496093 47.65625-63.925781l13.402344-3.992188c6.238281-1.851562 11.460937-5.699218 15.066406-10.730468.339844-.460938.648437-.933594.960937-1.414063 2.5625-4.0625 4.113281-8.789062 4.375-13.78125.027344-.492187.039063-.984375.039063-1.484375v-24.453125l78.558594-15.894531v38.367188c0 7.097656 2.601562 13.714843 7.046874 18.789062.121094.148438.25.300781.390626.449219 3.421874 3.765625 7.878906 6.648437 12.992187 8.179687l20.039063 5.964844c28.28125 8.429688 47.648437 34.425781 47.648437 63.925781zm0 0" fill="#ffdba9"/><path d="m244.492188 374.8125-20.039063-5.964844c-5.113281-1.53125-9.570313-4.414062-12.992187-8.175781-.140626-.152344-.269532-.300781-.390626-.453125-4.445312-5.074219-7.046874-11.691406-7.046874-18.789062v-38.367188l-78.558594 15.898438v8.332031l50.488281-10.214844v38.367187c0 7.097657 2.605469 13.714844 7.050781 18.789063.117188.152344.25.300781.390625.449219 3.421875 3.765625 7.875 6.648437 12.992188 8.179687l20.039062 5.964844c28.277344 8.429687 47.648438 34.425781 47.648438 63.925781v51.742188h20.519531c4.164062 0 7.546875-3.382813 7.546875-7.546875v-58.210938c0-29.5-19.367187-55.496093-47.648437-63.925781zm0 0" fill="#ffc473"/><path d="m292.625 139.191406c-3.207031-1.066406-5.433594-3.980468-5.429688-7.359375v-.332031c0-9.257812-4.085937-17.558594-10.554687-23.199219-3.328125-2.90625-4.636719-7.472656-3.28125-11.671875.960937-2.976562 1.484375-6.148437 1.484375-9.445312 0-13.777344-9.054688-25.4375-21.535156-29.363282-4.347656-1.367187-7.152344-5.464843-7.171875-10.019531-.003907-1.710937-.152344-3.457031-.460938-5.226562-2.292969-13.273438-13.21875-23.648438-26.597656-25.222657-5.546875-.652343-10.839844.175782-15.546875 2.136719-3.3125 1.378907-7.074219.527344-9.511719-2.105469-5.621093-6.074218-13.660156-9.878906-22.585937-9.878906-2.574219 0-5.066406.324219-7.453125.917969 62.425781 32.304687 105.09375 97.472656 105.09375 172.609375 0 43.289062-14.167969 83.265625-38.109375 115.5625 3.726562 1.65625 7.777344 2.707031 12.019531 3 21.136719 1.460938 38.734375-15.25 38.734375-36.074219 0-5.574219-1.265625-10.851562-3.519531-15.5625-1.410157-2.949219-.683594-6.496093 1.929687-8.464843 7.339844-5.523438 12.195313-14.234376 12.367188-24.019532.0625-3.570312-.484375-7-1.539063-10.203125-1.128906-3.40625.644531-7.121093 3.945313-8.523437 11.035156-4.679688 18.773437-15.605469 18.773437-28.347656 0-13.597657-8.820312-25.132813-21.050781-29.207032zm0 0" fill="#e1e1e3"/><path d="m204.023438 303.0625v29.097656c-14.644532 10.550782-32.613282 16.757813-52.03125 16.757813-9.25 0-18.179688-1.410157-26.566407-4.023438.027344-.492187.039063-.980469.039063-1.480469v-24.453124zm0 0" fill="#ffc473"/><path d="m241.136719 102.746094v135.667968c0 49.234376-39.914063 89.148438-89.148438 89.148438-49.226562 0-89.136719-39.914062-89.136719-89.148438v-135.667968l95.878907-38.039063zm0 0" fill="#ffdba9"/><path d="m250.375 226.933594h-9.242188v-60.777344h9.242188c15.78125 0 28.574219 12.792969 28.574219 28.574219v3.628906c0 15.78125-12.792969 28.574219-28.574219 28.574219zm0 0" fill="#ffc473"/><path d="m292.140625 438.738281v58.207031c0 4.164063-3.382813 7.546876-7.546875 7.546876h-233.074219c-4.171875 0-7.554687-3.382813-7.554687-7.546876v-58.207031c0-29.5 19.378906-55.496093 47.65625-63.925781l13.402344-3.992188c6.238281-1.851562 11.460937-5.699218 15.066406-10.730468.277344 1.839844 3.351562 18.375 23.3125 28.136718 18.449218 9.027344 20.46875 34.144532 20.679687 40.429688.03125.8125.703125 1.441406 1.503907 1.441406.808593 0 1.46875-.632812 1.5-1.441406.210937-6.285156 2.230468-31.402344 20.679687-40.429688 19.558594-9.570312 22.914063-25.636718 23.304687-28.007812.117188.148438.25.300781.390626.449219 3.421874 3.765625 7.878906 6.648437 12.992187 8.179687l20.039063 5.964844c28.28125 8.429688 47.648437 34.425781 47.648437 63.925781zm0 0" fill="#ef5361"/><path d="m244.492188 374.8125-20.039063-5.964844c-5.113281-1.53125-9.570313-4.414062-12.992187-8.175781-.140626-.152344-.269532-.300781-.390626-.453125-.324218 1.96875-2.695312 13.359375-14.664062 22.648438l20.019531 5.960937c28.277344 8.429687 47.648438 34.425781 47.648438 63.925781v51.742188h20.519531c4.164062 0 7.546875-3.382813 7.546875-7.546875v-58.210938c0-29.5-19.367187-55.496093-47.648437-63.925781zm0 0" fill="#dc4250"/><path d="m257.015625 164.917969c-15.203125 0-27.527344-12.324219-27.527344-27.527344 0-.238281.011719-.476563.015625-.714844-12.207031-2.820312-21.308594-13.75-21.308594-26.8125 0-4.765625 1.214844-9.25 3.347657-13.15625.652343-1.195312-.242188-2.621093-1.601563-2.53125-.578125.035157-1.160156.054688-1.746094.054688-10.453124 0-19.539062-5.828125-24.199218-14.410157-.648438-1.195312-2.339844-1.195312-2.984375 0-4.660157 8.582032-13.75 14.410157-24.203125 14.410157-7.074219 0-13.523438-2.671875-18.398438-7.0625-.726562-.652344-1.847656-.554688-2.453125.214843-5.039062 6.402344-12.859375 10.515626-21.640625 10.515626-5.835937 0-11.242187-1.816407-15.695312-4.914063-1.152344-.800781-2.726563-.003906-2.726563 1.402344 0 14.015625-9.808593 25.734375-22.933593 28.679687-1.089844.242188-1.648438 1.417969-1.164063 2.421875 1.730469 3.601563 2.707031 7.636719 2.707031 11.902344 0 15.203125-12.328125 27.523437-27.527344 27.523437l9.761719-62.171874 61.488281-43.375 67.304688-5.339844 40.707031 12.679687 22.402344 38.191407 6.617187 36.550781zm0 0" fill="#efefef"/><path d="m321.179688 168.398438c0-16.585938-10.933594-31.363282-26.480469-36.425782.003906-.15625.003906-.316406.003906-.472656 0-12.050781-5.535156-23.15625-14.972656-30.375 1.742187-4.433594 2.621093-9.105469 2.621093-13.9375 0-17.515625-12.121093-32.808594-28.769531-37.089844.136719-2.390625.046875-4.796875-.261719-7.199218-2.367187-18.058594-17.265624-32.015626-35.425781-33.191407-6.160156-.402343-12.265625.667969-17.875 3.113281-7.21875-8.082031-17.667969-12.820312-28.589843-12.820312-9.507813 0-18.671876 3.566406-25.691407 9.90625-6.199219-4.066406-13.53125-6.273438-21.003906-6.273438-19.738281 0-36.035156 15.003907-38.082031 34.203126-18.785156.398437-34.636719 14.503906-37.140625 33.167968-7.808594 3.757813-25.234375 14.492188-25.953125 35.644532-.199219 5.75 1.144531 11.617187 3.902344 17.136718-5.871094 6.914063-9.074219 15.585938-9.074219 24.742188 0 6.535156 1.628906 12.835937 4.746093 18.472656-14.78125 8.519531-23.519531 24.472656-22.5625 41.859375 1.035157 18.816406 13.839844 34.84375 31.191407 40.574219-1.539063 4.507812-2.332031 9.261718-2.332031 14.089844 0 24.074218 19.589843 43.664062 43.671874 43.664062 3.351563 0 6.65625-.386719 9.875-1.132812 9.921876 10.128906 21.824219 17.890624 34.980469 22.832031v14.523437c0 3.984375-1.128906 7.878906-3.21875 11.199219-.011719.015625-.019531.03125-.03125.046875-.539062.550781-.996093 1.175781-1.34375 1.863281-2.6875 3.402344-6.28125 5.859375-10.480469 7.105469l-13.40625 3.992188c-15.433593 4.601562-28.683593 13.859374-38.308593 26.769531-9.625 12.910156-14.710938 28.246093-14.710938 44.351562 0 4.144531 3.359375 7.503907 7.507813 7.503907 4.144531 0 7.503906-3.359376 7.503906-7.503907 0-25.980469 17.390625-49.308593 42.292969-56.730469l13.398437-3.992187c3.503906-1.039063 6.820313-2.621094 9.835938-4.648437 3.75 6.992187 10.613281 15.492187 23.105468 21.605468 14.828126 7.257813 16.332032 29.546875 16.480469 33.949219.171875 4.871094 4.125 8.683594 9.003907 8.683594 4.882812 0 8.835937-3.816407 9.003906-8.691407.148437-4.394531 1.648437-26.683593 16.480468-33.941406 12.910157-6.320312 19.8125-15.1875 23.476563-22.308594 2.4375 1.414063 5.035156 2.5625 7.761719 3.378907l20.039062 5.964843c24.898438 7.421876 42.285156 30.75 42.285156 56.730469l-.039062 58.246094-233.125-.039063v-26.167968c0-4.144532-3.359375-7.507813-7.503906-7.507813-4.148438 0-7.507813 3.363281-7.507813 7.507813v26.167968c0 8.300782 6.757813 15.054688 15.0625 15.054688h233.074219c8.300781 0 15.054688-6.753906 15.054688-15.054688v-58.207031c0-16.105469-5.085938-31.441406-14.707032-44.351562-9.625-12.910157-22.867187-22.167969-38.304687-26.769531l-20.03125-5.960938c-3.363281-1.007812-6.410157-2.84375-8.886719-5.3125-.570312-1.066406-1.390625-1.980469-2.390625-2.667969-.933594-1.089843-1.441406-1.734375-1.691406-2.226562-.421875-.835938-.886719-2.648438-1.660157-5.648438-1.03125-4.015625-5.121093-6.4375-9.136718-5.40625s-6.4375 5.121094-5.40625 9.136719c1.777344 6.921875 2.464844 8.941406 5.394531 12.582031-1.625 4.660157-6.167969 13.40625-18.359375 19.371094-9.375 4.589844-15.230469 12.296875-18.882812 20.269531-3.652344-7.972656-9.507813-15.679687-18.886719-20.269531-12.832031-6.28125-17.1875-15.636719-18.582031-20.035156 3.167968-5.492188 4.855468-11.691407 4.855468-18.039063v-10.230468c6.238282 1.246093 12.609375 1.882812 19.015625 1.882812 20.410157 0 39.917969-6.285156 56.417969-18.167969 6.042969-4.347656 11.539062-9.363281 16.414062-14.945312 6.335938 3.40625 13.488282 5.238281 20.734376 5.238281 24.082031 0 43.671874-19.589844 43.671874-43.664062 0-6.445313-1.390624-12.703126-4.070312-18.4375 9.015625-7.066407 14.648438-17.957032 14.839844-29.46875.082031-4.152344-.5-8.21875-1.730469-12.140626 13.867187-6.035156 22.914063-19.632812 22.914063-35.078124zm-49.417969 67.457031c-1.980469.964843-3.4375 2.753906-3.984375 4.890625-.542969 2.136718-.121094 4.40625 1.15625 6.203125 3.453125 4.863281 5.28125 10.59375 5.28125 16.574219 0 15.796874-12.859375 28.648437-28.660156 28.648437-4.082032 0-8.015626-.835937-11.640626-2.449219 9.660157-15.34375 14.734376-32.917968 14.734376-51.304687v-3.976563h1.726562c15.789062 0 29.234375-10.195312 34.113281-24.347656.363281 1.710938.53125 3.46875.496094 5.257812-.144531 8.609376-5.332031 16.65625-13.222656 20.503907zm-124.269531-48.703125v-4.261719c0-12.015625 9.773437-21.789063 21.789062-21.789063h4.265625c12.011719 0 21.785156 9.773438 21.785156 21.789063v4.261719c0 12.015625-9.773437 21.789062-21.785156 21.789062h-4.265625c-12.015625 0-21.789062-9.773437-21.789062-21.789062zm26.054687-41.066406h-4.265625c-17.929688 0-32.894531 12.886718-36.140625 29.882812h-12.59375c-3.25-16.996094-18.214844-29.882812-36.144531-29.882812h-3.46875c.710937-2.804688 1.078125-5.722657 1.078125-8.699219 0-3.070313-.390625-6.082031-1.171875-9 10.640625-4.523438 18.625-13.925781 21.449218-25.101563 3.820313 1.398438 7.878907 2.121094 12.023438 2.121094 8.890625 0 17.25-3.292969 23.652344-9.171875 5.59375 3.578125 12.113281 5.507813 18.84375 5.507813 9.882812 0 19.136718-4.148438 25.691406-11.21875 5.105469 5.511718 11.867188 9.25 19.292969 10.628906-.726563 2.835937-1.101563 5.761718-1.101563 8.707031 0 14.445313 8.652344 27.058594 21.628906 32.382813.84375 5.988281 3.226563 11.640624 6.863282 16.402343h-27.980469c-6.75-7.6875-16.644531-12.558593-27.65625-12.558593zm-115.195313 36.804687c0-12.015625 9.773438-21.789063 21.789063-21.789063h4.261719c12.015625 0 21.789062 9.773438 21.789062 21.789063v4.261719c0 12.015625-9.773437 21.789062-21.789062 21.789062h-4.261719c-12.015625 0-21.789063-9.773437-21.789063-21.789062zm190.296876-9.226563h1.726562c11.617188 0 21.066406 9.449219 21.066406 21.066407v3.628906c0 11.617187-9.449218 21.066406-21.066406 21.066406h-1.726562zm41.089843 16.984376c-1.230469.375-2.359375.964843-3.367187 1.71875-1.222656-18.796876-16.894532-33.71875-35.996094-33.71875h-1.835938c-.324218-1.992188-1.429687-3.714844-2.996093-4.851563-.027344-.019531-.042969-.039063-.074219-.058594-5.304688-3.746093-8.472656-9.859375-8.472656-16.351562 0-.125.007812-.25.015625-.40625.144531-3.605469-2.296875-6.804688-5.8125-7.617188-9.121094-2.109375-15.496094-10.128906-15.496094-19.503906 0-3.34375.847656-6.65625 2.457031-9.605469 1.605469-2.957031 1.476563-6.546875-.335937-9.371094-1.804688-2.8125-4.996094-4.414062-8.351563-4.199218-.421875.03125-.84375.042968-1.273437.042968-7.359375 0-14.113281-4.027343-17.601563-10.472656-1.601562-2.996094-4.703125-4.855468-8.09375-4.855468-3.394531 0-6.496094 1.859374-8.074218 4.816406-3.507813 6.484375-10.261719 10.511718-17.621094 10.511718-4.949219 0-9.703125-1.828124-13.378906-5.140624-1.878907-1.695313-4.394532-2.546876-6.917969-2.332032-2.523438.210938-4.871094 1.476563-6.453125 3.480469-3.816406 4.867187-9.554688 7.65625-15.746094 7.65625-4.117188 0-8.074219-1.242187-11.429688-3.582031-2.828124-1.984375-6.484374-2.230469-9.539062-.644532-3.058594 1.589844-4.953125 4.722657-4.953125 8.222657 0 10.167969-7.191406 19.148437-17.097656 21.359375-2.765625.621094-5.054688 2.4375-6.28125 4.980468-1.226563 2.546876-1.21875 5.46875.007812 7.996094 1.3125 2.726563 1.980469 5.640625 1.980469 8.664063 0 5.207031-1.988281 10.078125-5.601562 13.847656-10.804688 6.421875-18.0625 18.203125-18.0625 31.65625v4.265625c0 20.292969 16.511718 36.800781 36.804687 36.800781h4.265625c19 0 34.679688-14.472656 36.601562-32.972656h11.671876c.421874 4.085937 1.523437 7.972656 3.179687 11.554687.152344.390626.332031.761719.539063 1.117188 6.0625 12.027344 18.523437 20.304688 32.882812 20.304688h4.265625c12.296875 0 23.195313-6.070313 29.882813-15.359376.199218-.246093.378906-.507812.550781-.777343 4.015625-5.894531 6.371093-13.011719 6.371093-20.667969v-4.265625c0-3.183594-.410156-6.277344-1.171874-9.226563h24.445312v53.273438c0 .050781.007812.101562.007812.15625v11.328125c0 17.867187-5.664062 34.832031-16.386718 49.058594-4.96875 6.597656-10.890625 12.398437-17.609375 17.230469-13.929688 10.035156-30.40625 15.339843-47.644531 15.339843-7.058594 0-14.066407-.902343-20.832032-2.683593-15.5625-4.09375-29.476562-12.664063-40.238281-24.78125-11.269531-12.703126-18.207031-28.304688-20.0625-45.113282-.457031-4.121094-4.164063-7.097656-8.285156-6.640625-4.121094.453125-7.09375 4.164063-6.640625 8.285157 1.714844 15.535156 7.105468 30.183593 15.71875 43.019531-15.128906-.757813-27.207032-13.300781-27.207032-28.609375 0-5.484375 1.566407-10.824219 4.523438-15.441406 1.425781-2.226563 1.574219-5.039063.394531-7.402344-1.183593-2.367188-3.519531-3.9375-6.15625-4.132813-.125-.011719-.253906-.015625-.394531-.023437-14.730469-1.46875-26.429688-13.691406-27.246094-28.488282-.703125-12.726562 6.339844-24.304687 17.949219-29.492187 3.027344-1.359375 5.246094-3.96875 6.089844-7.164063.835937-3.164062.207031-6.488281-1.71875-9.121093-2.933594-4.007813-4.480469-8.757813-4.480469-13.730469 0-6.210938 2.425781-12.058594 6.828125-16.460938 3.523437-3.519531 4.195313-8.960937 1.628906-13.230468-1.59375-2.65625-3.460937-6.835938-3.296875-11.675782.1875-5.449218 2.726563-15.652343 17.691406-22.738281 4.457032-2.125 7.492188-6.347656 8.121094-11.285156 1.480469-11.570313 11.410156-20.296875 23.089844-20.296875.683594 0 1.363281.03125 2.03125.09375 3.089844.269531 6.167969-.769531 8.4375-2.859375 2.25-2.066406 3.53125-5.003906 3.515625-8.023437v-.128907c0-12.835937 10.445313-23.273437 23.28125-23.273437 5.386719 0 10.4375 1.777344 14.613281 5.15625 4.492188 3.613281 11.015625 3.105468 14.835938-1.136719 4.410156-4.863281 10.695312-7.65625 17.25-7.65625 7.46875 0 14.300781 3.453125 18.742187 9.472656 3.222657 4.371094 9.222657 5.675781 13.925781 3.046875 3.894532-2.152344 8.332032-3.136718 12.820313-2.84375 11.027344.714844 20.074219 9.191406 21.511719 20.148438.292968 2.273437.261718 4.558594-.09375 6.773437-.480469 2.929688.210937 5.851563 1.945312 8.222657 1.726563 2.363281 4.28125 3.898437 7.203125 4.328124 11.316407 1.664063 19.847657 11.5625 19.847657 23.023438 0 3.695312-.84375 7.234375-2.5 10.503906-2.523438 4.941406-.808594 11.117188 3.898437 14.0625 6.859375 4.285156 10.957031 11.667969 10.957031 19.75 0 .8125-.042968 1.625-.128906 2.449219-.59375 5.503906 3.023438 10.546875 8.394531 11.726563 10.550781 2.335937 18.210938 11.890624 18.210938 22.71875-.003907 10.292968-6.609375 19.234374-16.429688 22.25zm0 0"/><path d="m99.992188 185.019531c0 4.894531-3.96875 8.863281-8.859376 8.863281-4.894531 0-8.863281-3.96875-8.863281-8.863281 0-4.890625 3.96875-8.859375 8.863281-8.859375 4.890626 0 8.859376 3.96875 8.859376 8.859375zm0 0"/><path d="m176.449219 185.019531c0 4.894531-3.964844 8.863281-8.859375 8.863281-4.894532 0-8.859375-3.96875-8.859375-8.863281 0-4.890625 3.964843-8.859375 8.859375-8.859375 4.894531 0 8.859375 3.96875 8.859375 8.859375zm0 0"/><path d="m115.253906 276.546875c3.089844 1.332031 9.46875 3.5625 17.476563 3.5625 4.40625 0 9.304687-.675781 14.421875-2.546875 11.042968-4.050781 17.578125-11.738281 20.492187-15.960938 2.355469-3.414062 1.496094-8.089843-1.917969-10.445312-3.414062-2.355469-8.085937-1.496094-10.441406 1.917969-1.902344 2.753906-6.15625 7.769531-13.300781 10.386719-9.339844 3.421874-17.648437.648437-20.789063-.703126-3.808593-1.644531-8.222656.113282-9.863281 3.921876-1.644531 3.808593.113281 8.222656 3.921875 9.867187zm0 0"/><path d="m172.972656 466.507812c0 4.890626-3.96875 8.859376-8.859375 8.859376-4.894531 0-8.859375-3.96875-8.859375-8.859376 0-4.894531 3.964844-8.859374 8.859375-8.859374 4.890625 0 8.859375 3.964843 8.859375 8.859374zm0 0"/></svg>